# xmcd
#
# Track frame offsets:
#	150
#	14166
#	24709
#	35324
#	46671
#	57125
#	67453
#	78251
#	88205
#	100457
#	112918
#	124198
#	138209
#	148724
#	162400
#	174318
#	184976
#	195286
#	206391
#	218614
#	231885
#	245709
#
# Disc length: 3462 seconds
#
# Revision: 0
# Processed by: cddbd v1.5.2PL0 Copyright (c) Steve Scherf et al.
# Submitted via: dBpowerAMP V4.0
#
DISCID=390d8416
DTITLE=Various Artist - The Complete Cobra Singles disc1
DYEAR=1900
DGENRE=Blues
TTITLE0=OTIS RUSH - I Can't Quit You Baby
TTITLE1=OTIS RUSH - Sit Down Baby
TTITLE2=THE CLOUDS - Rock And Roll Boogie
TTITLE3=THE CLOUDS - I Do
TTITLE4=SHAKEY HORTON - Have A Good Time
TTITLE5=SHAKEY HORTON /Need My Baby
TTITLE6=THE CALVAES - Mambo Fiesta
TTITLE7=THE CALVAES - Fine Girl
TTITLE8=HAROLD BURRAGE and HIS COMBO - One More Dance
TTITLE9=HAROLD BURRAGE and HIS COMBO - You Eat Too Much
TTITLE10=OTIS RUSH and HIS BAND - Violent Love
TTITLE11=OTIS RUSH and HIS BAND - My Love Will Never Die
TTITLE12=SUNNYLAND SLIM - It's You Baby
TTITLE13=SUNNYLAND SLIM - Highway 61
TTITLE14=LEE JACKSON - Fishin' In My Pond
TTITLE15=LEE JACKSON - I'll Just Keep Walking
TTITLE16=GLORIA IRVING - I Need A Man
TTITLE17=GLORIA IRVING - For You And Only You
TTITLE18=DUKE JENKINS /Something Else
TTITLE19=DUKE JENKINS - The Duke Walks
TTITLE20=OTIS RUSH - Groaning The Blues
TTITLE21=OTIS RUSH - If You Were Mine
EXTD=
EXTT0=
EXTT1=
EXTT2=
EXTT3=
EXTT4=
EXTT5=
EXTT6=
EXTT7=
EXTT8=
EXTT9=
EXTT10=
EXTT11=
EXTT12=
EXTT13=
EXTT14=
EXTT15=
EXTT16=
EXTT17=
EXTT18=
EXTT19=
EXTT20=
EXTT21=
PLAYORDER=
